<svg viewBox="0 -0.5 21 21" xmlns="http://www.w3.org/2000/svg"><path d="M60.9 51h-3.2a3 3 0 0 0-3.2 3v3a3 3 0 0 0 3.2 3h3.1a3 3 0 0 0 3.2-3v-3a3 3 0 0 0-3.1-3m-11.6 0h-3.1a3 3 0 0 0-3.2 3v3a3 3 0 0 0 3.1 3h3.2a3 3 0 0 0 3.2-3v-3a3 3 0 0 0-3.2-3m11.6-11h-3.2a3 3 0 0 0-3.2 3v3a3 3 0 0 0 3.2 3h3.1a3 3 0 0 0 3.2-3v-3a3 3 0 0 0-3.1-3m-8.4 3v3a3 3 0 0 1-3.2 3h-3.1a3 3 0 0 1-3.2-3v-3a3 3 0 0 1 3.1-3h3.2a3 3 0 0 1 3.2 3" transform="translate(-99 -200) translate(56 160)" fill="#DAE1E7" stroke="none" stroke-width="1" fill-rule="evenodd"/></svg>