<svg viewBox="0 0 1024 1024" class="prefix__icon" xmlns="http://www.w3.org/2000/svg"><path d="M810.7 917.3H213.3c-46.9 0-85.3-38.4-85.3-85.3V234.7c0-47 38.4-85.4 85.3-85.4h597.4c46.9 0 85.3 38.4 85.3 85.4V832c0 47-38.4 85.3-85.3 85.3z" fill="#880E4F"/><path d="M339.2 597.3 384 403.2h59.7L367 672h-55.4l-76.8-268.8h59.7l44.8 194.1zm207 74.7h-53.4V403.2h53.3V672zm119.4-93.9V672h-53.3V403.2H704c79 0 87.5 72.5 87.5 89.6 0 25.6-10.7 85.3-87.5 85.3h-38.4zm0-46.9h36.3c27.7 0 32-23.5 32-40.5 0-34.2-19.2-44.8-32-44.8h-36.3v85.3z" fill="#FFD54F"/></svg>