<svg viewBox="0 0 800 800" xml:space="preserve" xmlns="http://www.w3.org/2000/svg"><path d="M372 1c19 0 38 0 57.7.4 5.2.8 9.8 1 14.3 1.6 14.4 2.2 28.9 4.4 43.2 7a358.5 358.5 0 0 1 87.7 29.6c25 11.8 48.8 25.7 70.3 43.1C657.9 93 671 103 682.5 114.4a602 602 0 0 1 37.2 42 341.3 341.3 0 0 1 39.5 61.2 360 360 0 0 1 29 74.2c3.8 14.3 6.6 28.8 9.8 43.3l3 15.9c0 32.7 0 65.4-.4 98.7-2.6 13.7-4 27-7 39.9a415.4 415.4 0 0 1-52 124.2 298 298 0 0 1-35.9 47.8c-14.5 15.2-28.9 30.9-44.8 44.5-15 12.7-31.7 23.5-48 34.4A348.3 348.3 0 0 1 537 777c-19.8 7-39.8 13-60.5 16.1-16.6 2.5-33.1 6-49.8 6.6-23 .8-46 1.9-69-1.7-16.3-2.6-32.7-4.7-48.8-8.1a368 368 0 0 1-83-29 347.8 347.8 0 0 1-69-42.5c-12.6-10.2-25.6-20-37-31.3-13.4-13.3-25.5-27.9-37.6-42.4a339.4 339.4 0 0 1-39.5-61.2 358.9 358.9 0 0 1-29.1-74.3C10 495 7.2 480.4 4 466L1 450c0-32.7 0-65.4.4-98.7 1.1-5.7 1.6-11 2.7-16 3.4-16 6.3-32 10.8-47.6 9.2-32.3 22.7-63 40-91.9 15.8-26.1 34-50.4 55.3-72.1 13.5-13.8 28.6-26.2 43.4-38.6a327.3 327.3 0 0 1 57.8-37.7 388.8 388.8 0 0 1 83.5-32.8C315.6 9 336.5 4.6 358 3c4.7-.4 9.4-1.3 14.1-2m170 132.6c-3.6 2.4-7 5-10.7 7.2-2.7 1.6-3.5 3.5-2.9 6.5 1.6 8 3 16 4.3 24 3.5 22.6 7 45.2 10.2 67.9 5.2 35.7 10.2 71.4 15.2 107.2l4.2 29.6c5.2-3.5 9.9-6.5 14.9-8.7l2.7 17.6c5.3-3.7 9.7-7.3 14.6-10.1 4.2-2.5 5-5.4 4.4-10.2-12-81.4-24-162.9-35.8-244.3l-1.7-10.7c-3.8 2.7-6.7 5.1-10 7-6.4 3.9-11.9 8-9.4 17m-339 94.8-2-16.6c-4.4 3.1-8.2 5.5-11.5 8.5a7.6 7.6 0 0 0-2.4 5.6 3036820.2 3036820.2 0 0 0 44 348.9l4.1 31.2c5.2-6.5 16.4-6.7 14.5-18.2 3.6-2.6 7.3-5 10.7-7.9.9-.7 1.5-2.5 1.4-3.6-1.7-16.8-3.3-33.7-5.4-50.4-3-24.1-6.6-48.2-9.6-72.3-3.3-26.1-6-52.4-9.4-78.5l-17.7-132.6-3-21.5c-5 3-9.2 5.7-13.6 7.4m47.8 430.3c-2.2 2.4-6.4 4.9-6.3 7.2.4 8.3 2.3 16.6 3.7 25.4l5.4-3.6 201.2-143 156.3-111c1.3-1 3.4-2.7 3.2-3.9-1-8.7-2.5-17.2-4-26.2-4.1 2.7-7.7 5-11.4 6.6l-3-19.7c-1.8.7-3.3 1-4.4 1.7l-30 21.1c-16 11.5-31.9 23.3-48 34.8-15 10.6-30.2 20.8-45.1 31.4-22.8 16-45.5 32.3-68.2 48.5l-22.9 16.4c-7.5 5.4-14.8 11-22.4 16.4-11.9 8.2-24 16.2-35.8 24.5-13 9.2-25.7 18.6-38.6 27.8-9.7 6.9-19.5 13.5-29.1 20.5-1.5 1.1-2.6 3.8-2.4 5.7.4 6.3 1.4 12.5 1.8 19.4m216.8-435.1-9-12.9a6.5 6.5 0 0 0-4.1-2.4c-.8-.1-2 1.8-2.7 3-1.9 3-3.7 6.1-5.5 9.3l-19 34.7c-8.4 15-17 29.9-25.2 45-7.3 13-14.1 26.4-21.4 39.5-10.3 18.7-20.8 37.4-31.2 56l-27.4 49.3c-8.8 15.8-17.4 31.5-26 47.3-.6 1.3-1 3.5-.3 4.5 4 5.7 8.2 11.1 12.3 17.3-1.7 3.4-3.3 7-5.3 10.2-1.4 2.4-1.2 4 .4 6.2 3.9 5 7.4 10.3 11 15.5 2.6 3.5 5.3 7 8 11l2-3.3 134.4-244 35.6-64.9c.8-1.4 1.6-3.8 1-4.8-6.4-9.3-13-18.5-19.9-28-2.6 4.3-5 8.2-7.7 11.5m-242.6-10.2L268.2 506l208-368.7L221 184l4.2 29.3m325.5 188.4c.7-2 2.3-4 2-5.8l-21.8-125.5-7-39.9-165.4 301 .9.7 191.3-130.5z" fill="#010101"/><path d="M225 213 221 184l255.3-46.9-208 368.8-43.1-293z" fill="#EB71FE"/><path d="m550.3 402-191 130.4-1-.9 165.5-300.9 7 40L552.6 396c.3 1.8-1.3 3.9-2.3 6z" fill="#32EEEB"/><path d="m468 224.2 7.4-12.2c6.8 9.6 13.5 18.8 19.8 28.1.7 1-.1 3.4-.9 4.8-11.8 21.7-23.7 43.2-35.6 64.8L324.2 553.8l-1.8 3.3-8-11-11-15.5c-1.7-2.2-2-3.8-.5-6.2 2-3.3 3.6-6.8 5.7-10.7l17.8-31.8 119-216c7.7-13.9 15-27.8 22.6-41.7z" fill="#FDFCFC"/><path d="m599 411 11.5-7.4c1.4 9 2.9 17.5 4 26.2 0 1.2-2 2.9-3.3 3.9l-156.4 111-201 143-5.5 3.6c-1.4-8.8-3.3-17.1-3.7-25.4-.1-2.3 4-4.8 6.8-7.6l93.8-66.5c68-48.2 135.8-96.5 203.6-144.7l50.3-36.1z" fill="#FDFBFC"/><path d="M599 410.6a2840.4 2840.4 0 0 1-50.2 36.5 398439.1 398439.1 0 0 1-297.2 211c-1-6.3-2.1-12.5-2.5-18.8-.2-1.9 1-4.6 2.4-5.7 9.6-7 19.4-13.6 29.1-20.5 13-9.2 25.7-18.6 38.6-27.8 11.9-8.3 24-16.3 35.8-24.6 7.6-5.3 14.9-10.9 22.4-16.3l23-16.4 68-48.5c15-10.6 30.2-20.8 45.2-31.4 16.1-11.5 32-23.3 48-34.8l30-21c1-.9 2.6-1.1 4.5-1.8l3 20z" fill="#FC56BA"/><path d="M467.9 223.9c-7.4 14.2-14.8 28.1-22.4 42l-119 216a1548 1548 0 0 1-17.9 31.5c-4.5-5.4-8.8-10.8-12.7-16.5-.7-1-.3-3.2.4-4.5 8.5-15.8 17.1-31.5 25.8-47.3l27.5-49.2 31.2-56.1c7.2-13.1 14.1-26.5 21.4-39.6l25.2-45 19-34.6a216 216 0 0 1 5.5-9.4c.7-1.2 1.9-3 2.7-3 1.4.2 3 1.3 4 2.5 3.2 4.2 6 8.6 9.3 13.2z" fill="#FC4646"/><path d="M249 588c2.6 11.3-8.6 11.5-13.8 18l-4-31.3c-12-93.6-23.8-187.3-35.6-281-2.9-22.5-5.8-45.2-8.5-67.8-.2-1.8 1-4.4 2.4-5.7 3.3-3 7.1-5.3 11.4-8.4l2.2 17.4L214 313l13.4 106.8A63007 63007 0 0 0 243 543.6l6 44.5z" fill="#FAF9F8"/><path d="M542.7 133.4c-3.2-8.8 2.3-13 8.7-16.7 3.3-2 6.2-4.4 10-7l1.7 10.6c11.9 81.4 23.7 162.9 35.8 244.3.7 4.8-.1 7.7-4.4 10.2-4.9 2.8-9.3 6.4-14.6 10l-2.8-18.3c-1.6-11-3-21.3-4.6-31.5l-23.7-162.7-6-39z" fill="#FAFBF9"/><path d="M249.3 588c-2.3-14.8-4.4-29.6-6.3-44.4l-15.7-123.7-13.4-106.8-10.6-83.5c4.2-3 8.4-5.5 13.3-8.6 1 7.5 2.2 14.5 3.1 21.5 6 44.2 12 88.4 17.7 132.6 3.3 26.1 6.1 52.4 9.4 78.5 3 24.1 6.6 48.2 9.6 72.3 2.1 16.7 3.7 33.5 5.4 50.4.1 1.1-.5 2.9-1.4 3.6-3.4 2.8-7.1 5.3-11 8z" fill="#FCA547"/><path d="M542.4 133.5c2.3 12.9 4.5 25.8 6.4 38.8L572.5 335l4.4 31c-4.7 3.5-9.4 6.5-14.6 10l-4.2-29.7c-5-35.7-10-71.4-15.2-107.1-3.3-22.7-6.7-45.3-10.2-68-1.2-8-2.7-16-4.3-23.9-.6-3 .2-5 2.9-6.5 3.7-2.2 7.1-4.8 11-7.3z" fill="#59EC2D"/></svg>