<svg preserveAspectRatio="xMidYMid" viewBox="0 -28.5 256 256" xmlns="http://www.w3.org/2000/svg"><path d="M216.9 16.6A208.5 208.5 0 0 0 164 0a155 155 0 0 0-6.7 14 194 194 0 0 0-58.6 0A150 150 0 0 0 92 0 207.8 207.8 0 0 0 39 16.6 221.5 221.5 0 0 0 1 165 211.2 211.2 0 0 0 66 198.2a161 161 0 0 0 13.8-22.9c-7.6-2.9-14.9-6.5-21.8-10.6l5.3-4.3a149.3 149.3 0 0 0 129.6 0c1.7 1.5 3.5 3 5.3 4.3a136 136 0 0 1-21.9 10.6c4 8 8.7 15.7 13.9 22.9a210.7 210.7 0 0 0 64.8-33.2c5.3-56.3-9-105.1-38-148.4zM85.5 135.1c-12.7 0-23-11.8-23-26.2 0-14.4 10.1-26.2 23-26.2 12.8 0 23.2 11.8 23 26.2 0 14.4-10.2 26.2-23 26.2zm85 0c-12.6 0-23-11.8-23-26.2 0-14.4 10.2-26.2 23-26.2 12.9 0 23.3 11.8 23 26.2 0 14.4-10.1 26.2-23 26.2z" fill="#5865F2"/></svg>