<svg viewBox="0 -0.5 48 48" xmlns="http://www.w3.org/2000/svg"><path d="M724 560a24 24 0 0 0-7.6 47c1.2.2 1.7-.6 1.7-1.2v-4.1c-6.8 1.5-8.2-3.2-8.2-3.2-1-2.8-2.6-3.6-2.6-3.6-2.2-1.4.1-1.4.1-1.4 2.4.2 3.7 2.5 3.7 2.5 2.2 3.6 5.6 2.6 7 2 .2-1.6.8-2.7 1.5-3.3-5.3-.6-11-2.6-11-11.9 0-2.6 1-4.7 2.6-6.4-.3-.6-1.1-3 .2-6.4 0 0 2-.7 6.6 2.5a23 23 0 0 1 12 0c4.6-3.2 6.6-2.5 6.6-2.5 1.3 3.3.5 5.8.2 6.4a9.3 9.3 0 0 1 2.5 6.4c0 9.3-5.6 11.3-11 12 1 .7 1.7 2.1 1.7 4.4v6.6c0 .6.4 1.4 1.6 1.2a24 24 0 0 0-7.6-47" transform="translate(-700 -560)" fill="#3E75C3" fill-rule="evenodd"/></svg>